<svg width="232.669970703125px" height="114.66875px" xmlns="http://www.w3.org/2000/svg" viewBox="133.6650146484375 17.665625 232.669970703125 114.66875" style="background-color: rgba(0, 0, 0, 0); background-position: initial initial; background-repeat: initial initial;" preserveAspectRatio="xMidYMid"><defs><filter id="editing-hole" x="-100%" y="-100%" width="300%" height="300%"><feFlood flood-color="#000" result="black"></feFlood><feMorphology operator="dilate" radius="2" in="SourceGraphic" result="erode"></feMorphology><feGaussianBlur in="erode" stdDeviation="4" result="blur"></feGaussianBlur><feOffset in="blur" dx="2" dy="2" result="offset"></feOffset><feComposite operator="atop" in="offset" in2="black" result="merge"></feComposite><feComposite operator="in" in="merge" in2="SourceGraphic" result="inner-shadow"></feComposite></filter></defs><g filter="url(#editing-hole)"><g transform="translate(172.7200059890747, 101.59781265258789)"><path d="M2.88-22.02L2.88-22.02Q2.88-33.22 9.06-39.01L9.06-39.01L9.06-39.01Q15.23-44.80 26.62-44.80L26.62-44.80L26.62-44.80Q38.02-44.80 44.22-38.98L44.22-38.98L44.22-38.98Q50.43-33.15 50.43-22.02L50.43-22.02L50.43-22.02Q50.43-14.59 47.65-9.50L47.65-9.50L47.65-9.50Q44.86-4.42 39.55-1.79L39.55-1.79L49.60 8.38L32.77 8.38L25.98 0.77L25.98 0.77Q14.85 0.58 8.86-5.22L8.86-5.22L8.86-5.22Q2.88-11.01 2.88-22.02L2.88-22.02ZM35.97-24.06L35.97-24.06Q35.97-28.74 33.57-31.49L33.57-31.49L33.57-31.49Q31.17-34.24 26.62-34.24L26.62-34.24L26.62-34.24Q22.08-34.24 19.71-31.49L19.71-31.49L19.71-31.49Q17.34-28.74 17.34-24.06L17.34-24.06L17.34-19.97L17.34-19.97Q17.34-15.30 19.71-12.54L19.71-12.54L19.71-12.54Q22.08-9.79 26.62-9.79L26.62-9.79L26.62-9.79Q31.17-9.79 33.57-12.54L33.57-12.54L33.57-12.54Q35.97-15.30 35.97-19.97L35.97-19.97L35.97-24.06ZM77.12-44.03L77.12-44.03Q100.22-44.03 100.22-22.02L100.22-22.02L100.22-22.02Q100.22 0 77.12 0L77.12 0L58.05 0L58.05-44.03L77.12-44.03ZM72.19-33.47L72.19-10.56L76.86-10.56L76.86-10.56Q85.76-10.56 85.76-20.10L85.76-20.10L85.76-23.94L85.76-23.94Q85.76-33.47 76.86-33.47L76.86-33.47L72.19-33.47ZM151.68 0L139.33 0L120.83-21.38L120.83 0L107.84 0L107.84-44.03L120.19-44.03L138.69-22.34L138.69-44.03L151.68-44.03L151.68 0Z" fill="#ccc"></path></g></g><style>text {
  font-size: 64px;
  font-family: Arial Black;
  dominant-baseline: central;
  text-anchor: middle;
}</style></svg>